# xmcd
#
# Track frame offsets: 
#        150
#        13799
#        27904
#        38476
#        49788
#        62597
#        72819
#        82864
#        94923
#        106508
#        118267
#        129052
#        142096
#        155218
#        167443
#        179152
#        188952
#        199841
#        210871
#        221583
#        231785
#        240599
#        252024
#
# Disc length: 3454 seconds
#
# Revision: 0
# Processed by: cddbd v1.5.2PL0 Copyright (c) Steve Scherf et al.
# Submitted via: ExactAudioCopyFreeDBPlugin 1.0
#
DISCID=360d7c17
DTITLE=Monroe, Bill - The Music of Bill Monroe from 1936 to 1994
DYEAR=1900
DGENRE=Country
TTITLE0=Memories of Mother and Dad
TTITLE1=Little Girl and the Dreadful Snake
TTITLE2=Y'all Come
TTITLE3=Sitting Alone in the Moonlight
TTITLE4=On and On
TTITLE5=White House Blues
TTITLE6=Happy On My Way
TTITLE7=Voice from On High
TTITLE8=CLose By
TTITLE9=Put My Little SHoes Away
TTITLE10=Wheel Hoss
TTITLE11=Cheyenne
TTITLE12=You'll Find Her Name Written There
TTITLE13=Roanoke
TTITLE14=Girl in the Blue Velvet Band
TTITLE15=Used to Be
TTITLE16=Good Woman's Love
TTITLE17=Cry, Cry Darling
TTITLE18=I'm Sitting on Top of the World
TTITLE19=I'll Meet You in the Morning
TTITLE20=Scotland
TTITLE21=Molly and Tenbrooks
TTITLE22=John Henry
EXTD=
EXTT0=
EXTT1=
EXTT2=
EXTT3=
EXTT4=
EXTT5=
EXTT6=
EXTT7=
EXTT8=
EXTT9=
EXTT10=
EXTT11=
EXTT12=
EXTT13=
EXTT14=
EXTT15=
EXTT16=
EXTT17=
EXTT18=
EXTT19=
EXTT20=
EXTT21=
EXTT22=
PLAYORDER=
